<svg width="62" height="64" viewBox="0 0 62 64" fill="none" xmlns="http://www.w3.org/2000/svg">
<path d="M12.4308 43.8321L12.6843 43.3452L21.4703 26.4888L16.4795 17.8446C14.9586 15.21 15.8581 11.8526 18.4927 10.3315C21.1273 8.81041 24.4846 9.71013 26.0058 12.3446L30.9814 20.9626L49.9725 21.7819L50.5208 21.8059L55.2591 30.0128L53.8534 30.2617L37.9702 33.0675L42.7558 41.3565L50.8156 41.3242L51.396 41.3218L54.9331 47.4482L53.6374 47.7645L41.7739 50.6558L33.3382 59.4842L32.4165 60.4482L28.8784 54.3201L29.1729 53.8185L33.2437 46.881L28.4585 38.5929L18.087 50.9453L17.1691 52.039L12.4308 43.8321Z" fill="#232323" stroke="#F0F0F0" stroke-width="2"/>
</svg>
